<svg xmlns="http://www.w3.org/2000/svg" width="8" height="12" viewBox="0 0 8 12" fill="none">
  <path fill-rule="evenodd" clip-rule="evenodd" d="M1.13156 10.864C1.31041 11.0454 1.60311 11.0453 1.78193 10.8639L5.94517 6.64001L5.9472 6.64208L6.58618 5.99344L6.58432 5.99155L6.58618 5.98966L5.9449 5.33928L5.94314 5.34107L1.79763 1.13544C1.61938 0.954596 1.32761 0.954608 1.14936 1.13547C0.974738 1.31265 0.974745 1.59723 1.14938 1.77441L5.304 5.98952L1.13149 10.2228C0.956245 10.4006 0.956273 10.6862 1.13156 10.864Z" fill="#757575"/>
  <path d="M1.78193 10.8639L2.13803 11.2149V11.2149L1.78193 10.8639ZM1.13156 10.864L1.48759 10.5129L1.48759 10.5129L1.13156 10.864ZM5.94517 6.64001L6.30127 6.28903L5.94516 5.92774L5.58906 6.28903L5.94517 6.64001ZM5.9472 6.64208L5.5911 6.99307L5.9473 7.35446L6.3034 6.99297L5.9472 6.64208ZM6.58618 5.99344L6.94238 6.34433L7.28816 5.99331L6.94225 5.64242L6.58618 5.99344ZM6.58432 5.99155L6.2282 5.64058L5.88226 5.99159L6.22825 6.34256L6.58432 5.99155ZM6.58618 5.98966L6.9423 6.34063L7.28828 5.98957L6.94221 5.6386L6.58618 5.98966ZM5.9449 5.33928L6.30093 4.98823L5.94482 4.62706L5.58878 4.98831L5.9449 5.33928ZM5.94314 5.34107L5.58705 5.69207L5.94316 6.05335L6.29925 5.69204L5.94314 5.34107ZM1.79763 1.13544L1.44154 1.48644L1.79763 1.13544ZM1.14936 1.13547L1.50548 1.48644H1.50548L1.14936 1.13547ZM1.14938 1.77441L1.50548 1.42342L1.14938 1.77441ZM5.304 5.98952L5.6601 6.3405L6.00605 5.98951L5.6601 5.63853L5.304 5.98952ZM1.13149 10.2228L0.775393 9.87183L0.775393 9.87183L1.13149 10.2228ZM1.42583 10.5129C1.44281 10.4957 1.4706 10.4957 1.48759 10.5129L0.775524 11.215C1.15022 11.595 1.7634 11.595 2.13803 11.2149L1.42583 10.5129ZM5.58906 6.28903L1.42583 10.5129L2.13803 11.2149L6.30127 6.991L5.58906 6.28903ZM6.3033 6.29109L6.30127 6.28903L5.58906 6.991L5.5911 6.99307L6.3033 6.29109ZM6.22998 5.64255L5.59101 6.29119L6.3034 6.99297L6.94238 6.34433L6.22998 5.64255ZM6.22825 6.34256L6.23011 6.34445L6.94225 5.64242L6.94039 5.64053L6.22825 6.34256ZM6.23006 5.63869L6.2282 5.64058L6.94044 6.34252L6.9423 6.34063L6.23006 5.63869ZM5.58887 5.69034L6.23015 6.34071L6.94221 5.6386L6.30093 4.98823L5.58887 5.69034ZM6.29925 5.69204L6.30101 5.69026L5.58878 4.98831L5.58703 4.99009L6.29925 5.69204ZM1.44154 1.48644L5.58705 5.69207L6.29923 4.99007L2.15372 0.78444L1.44154 1.48644ZM1.50548 1.48644C1.4879 1.50427 1.45913 1.50428 1.44154 1.48644L2.15372 0.78444C1.77962 0.404917 1.16731 0.404943 0.793244 0.784498L1.50548 1.48644ZM1.50548 1.42342C1.52271 1.44089 1.52271 1.46896 1.50548 1.48644L0.793245 0.784497C0.42677 1.15635 0.426785 1.75356 0.793282 2.12539L1.50548 1.42342ZM5.6601 5.63853L1.50548 1.42342L0.793282 2.12539L4.9479 6.34051L5.6601 5.63853ZM1.4876 10.5738L5.6601 6.3405L4.9479 5.63853L0.775393 9.87183L1.4876 10.5738ZM1.48759 10.5129C1.50424 10.5298 1.50424 10.5569 1.4876 10.5738L0.775393 9.87183C0.408253 10.2443 0.40831 10.8426 0.775525 11.215L1.48759 10.5129Z" fill="#757575"/>
</svg>