<svg width="89" height="89" viewBox="0 0 89 89" fill="none" xmlns="http://www.w3.org/2000/svg">
<circle cx="44.5" cy="44.5" r="43.5" fill="#91EB36" stroke="#333333" stroke-width="2"/>
<path d="M34.5122 34.6509C34.5122 29.1368 38.9235 24.6667 44.3651 24.6667C49.8067 24.6667 54.218 29.1368 54.218 34.6509C54.218 40.165 49.8067 44.635 44.3651 44.635C41.7519 44.635 39.2458 43.5831 37.398 41.7107C35.5502 39.8383 34.5122 37.2988 34.5122 34.6509ZM63.8 60.984L60.2529 53.7705C58.9997 51.2266 56.4327 49.6215 53.6269 49.6271H35.1033C32.2975 49.6215 29.7305 51.2266 28.4772 53.7705L24.9302 60.984C24.546 61.7566 24.584 62.6756 25.0306 63.4129C25.4772 64.1502 26.2687 64.6006 27.1225 64.6033H61.6077C62.4615 64.6006 63.253 64.1502 63.6996 63.4129C64.1462 62.6756 64.1842 61.7566 63.8 60.984Z" fill="#333333"/>
</svg>
